<?xml version="1.0" encoding="UTF-8" standalone="no"?>
<svg xmlns="http://www.w3.org/2000/svg" xmlns:xlink="http://www.w3.org/1999/xlink" viewBox="1.1121 1.4311 100 98.82">
<path id="path" d="
m 49.751684,4.2433591 c -6.181524,2.4058452 -14.90237,0.3684714 -17.335201,5.1543963 -2.531905,2.8539566 -3.435428,6.9700276 -5.352372,9.9881086 0,0 -1.81386,6.928724 -3.77076,3.113745 -4.122506,-1.158237 -7.17783,0.364359 -10.902803,2.264961 -2.4994791,3.303299 -5.5830223,5.656399 -6.5808014,10.018485 -0.7329279,2.799487 -1.7443507,6.421928 -2.2682674,10.218038 0.6322422,3.899168 -2.3394698,10.108589 3.785946,11.081209 4.2672238,5.172279 11.8077468,-0.385603 13.9841858,2.012114 2.328383,2.215889 7.876886,-0.557855 11.258337,2.615146 13.275036,1.274783 13.445873,-7.494552 12.456222,7.080974 -0.118881,6.619951 -4.946703,13.608696 -12.036137,13.741145 -5.802686,0.628692 -11.756192,-0.290286 -17.455932,1.250995 -0.201074,4.262706 5.529524,6.56752 8.502729,9.032626 15.844961,10.021878 37.360725,11.043098 53.466855,1.02288 2.182855,-1.314012 10.247203,-5.640133 6.080331,-7.632967 -7.793085,-1.2104 -17.693974,0.322695 -24.265231,-5.812649 -5.569665,-5.396293 -6.251663,-16.010499 0.539886,-20.735957 2.028977,-1.703216 5.239162,-7.129959 6.793802,-6.534759 1.268373,5.502181 5.860122,23.125671 15.178579,18.251253 6.71115,2.438854 11.271497,-7.147854 13.872985,-5.034589 5.160113,-1.663694 3.232416,-8.255485 4.431563,-11.88375 0.25201,-5.452468 -0.750589,-10.778734 -1.750136,-15.81899 -1.524888,-1.872815 -1.713503,-6.622449 -4.802559,-8.957639 -1.342521,-3.498504 -3.756712,-7.030986 -6.57112,-8.241271 C 83.15838,19.123246 74.257189,13.849662 73.35912,14.378837 65.885401,17.464724 67.712526,12.507004 64.648129,12.161187 64.614816,5.0512367 54.489242,5.1107804 49.751684,4.2433591 Z
" fill="#0000" stroke="#ddd" stroke-width="1" stroke-dasharray="1 2 10 5 20 409" stroke-dashoffset="45" stroke-linecap="round" stroke-linejoin="round" >
<animate 
attributeName="stroke-dashoffset"
from="40"
to="-406"
dur="10s"
begin="0s"
repeatCount="indefinite"
></animate>
</path>
<path d="M0,0 L-3,1 L -3,-1 z"
        fill="#7c4" stroke="#5a4" stroke-width="0.6"  >
	<animateMotion dur="10s" repeatCount="indefinite" rotate="auto" >
       <mpath xlink:href="#path"/>
    </animateMotion>
</path>
<text x="10" y="50" font-size="10" fill="#ddd" >Chargement en Cours</text>
<text x="47" y="60" font-size="10" fill="#ddd" > ... </text>
</svg>